<?xml version="1.0" standalone="no"?><!DOCTYPE svg PUBLIC "-//W3C//DTD SVG 1.1//EN" "http://www.w3.org/Graphics/SVG/1.1/DTD/svg11.dtd"><svg class="icon" style="" viewBox="0 0 1024 1024" version="1.1" xmlns="http://www.w3.org/2000/svg" p-id="3871" xmlns:xlink="http://www.w3.org/1999/xlink" width="200" height="200"><defs><style type="text/css"><![CDATA[

]]></style></defs><path d="M290.093493 255.957533l68.211545 0L358.305037 85.092004l-68.211545 0L290.093493 255.957533" p-id="3872"></path><path d="M358.305037 85.092004l-68.211545 0 0 170.866552 68.211545 0L358.305037 85.092004" p-id="3873"></path><path d="M665.691893 255.957533l68.211545 0L733.903437 85.092004l-68.211545 0L665.691893 255.957533" p-id="3874"></path><path d="M733.903437 85.092004l-68.211545 0 0 170.866552 68.211545 0L733.903437 85.092004" p-id="3875"></path><path d="M870.616122 187.519838 733.999628 187.519838l0 68.373227-68.307735 0 0-68.373227L358.33676 187.519838l0 68.373227L290.029024 255.893065l0-68.373227L153.445276 187.519838c-18.857487 0-34.154891 15.361873-34.154891 34.186613l0 68.276013 785.448906 0 0-68.276013C904.739291 202.88171 889.473609 187.519838 870.616122 187.519838" p-id="3876"></path><path d="M119.257639 904.724453c0 18.85544 15.297404 34.184567 34.154891 34.184567l717.139124 0c18.920932 0 34.186613-15.329127 34.186613-34.184567L904.738267 324.138378 119.257639 324.138378 119.257639 904.724453zM699.813015 392.477836l136.616494 0 0 136.583748L699.813015 529.061584 699.813015 392.477836zM699.813015 563.247174l136.616494 0L836.429509 699.862645 699.813015 699.862645 699.813015 563.247174zM699.813015 733.985814l136.616494 0 0 136.616494L699.813015 870.602308 699.813015 733.985814zM529.074376 392.477836l136.617517 0 0 136.583748L529.074376 529.061584 529.074376 392.477836zM529.074376 563.247174l136.617517 0L665.691893 699.862645 529.074376 699.862645 529.074376 563.247174zM529.074376 733.985814l136.617517 0 0 136.616494L529.074376 870.602308 529.074376 733.985814zM358.305037 392.477836l136.617517 0 0 136.583748L358.305037 529.061584 358.305037 392.477836zM358.305037 563.247174l136.617517 0L494.922555 699.862645 358.305037 699.862645 358.305037 563.247174zM358.305037 733.985814l136.617517 0 0 136.616494L358.305037 870.602308 358.305037 733.985814zM187.534675 392.477836l136.617517 0 0 136.583748L187.534675 529.061584 187.534675 392.477836zM187.534675 563.247174l136.617517 0L324.152193 699.862645 187.534675 699.862645 187.534675 563.247174zM187.534675 733.985814l136.617517 0 0 136.616494L187.534675 870.602308 187.534675 733.985814z" p-id="3877"></path></svg>