<?xml version="1.0" encoding="UTF-8"?>
<svg width="24px" height="24px" viewBox="0 0 24 24" version="1.1" xmlns="http://www.w3.org/2000/svg" xmlns:xlink="http://www.w3.org/1999/xlink">
    <!-- Generator: Sketch 41.2 (35397) - http://www.bohemiancoding.com/sketch -->
    <title>Group 511</title>
    <desc>Created with Sketch.</desc>
    <defs></defs>
    <g id="Symbols" stroke="none" stroke-width="1" fill="none" fill-rule="evenodd" stroke-linecap="round" stroke-linejoin="round">
        <g id="Help-Desk" transform="translate(-16.000000, -69.000000)" stroke="#9F9F9F">
            <g id="Group">
                <g id="Dropdown-Copy-2">
                    <g id="Group-511" transform="translate(16.000000, 70.000000)">
                        <path d="M7.4404,13.8135 C6.9514,13.7475 6.4684,13.6425 6.0004,13.5005 L1.0004,15.5005 L3.0004,12.0005 C1.4264,10.7415 0.5004,8.8755 0.5004,6.9345 C0.5004,3.1055 4.3054,0.0005 9.0004,0.0005 C13.6944,0.0005 17.5004,3.1055 17.5004,6.9345" id="Stroke-785"></path>
                        <path d="M9.5,15.5 C9.5,19.788 14.5,23 19,21 L23,22.5 L21.5,19.5 C22.796,18.463 23.5,17.098 23.5,15.5 C23.5,12.346 20.366,9.5 16.5,9.5 C12.634,9.5 9.5,12.346 9.5,15.5 L9.5,15.5 Z" id="Stroke-786"></path>
                    </g>
                </g>
            </g>
        </g>
    </g>
</svg>